<?xml version="1.0" encoding="UTF-8" standalone="no"?>
<!DOCTYPE svg PUBLIC "-//W3C//DTD SVG 1.1//EN" "http://www.w3.org/Graphics/SVG/1.1/DTD/svg11.dtd">
<svg width="100%" height="100%" viewBox="0 0 83 140" version="1.1" xmlns="http://www.w3.org/2000/svg" xmlns:xlink="http://www.w3.org/1999/xlink" xml:space="preserve" xmlns:serif="http://www.serif.com/" style="fill-rule:evenodd;clip-rule:evenodd;stroke-linejoin:round;stroke-miterlimit:2;">
    <g id="Artboard1" transform="matrix(0.591974,0,0,1,0,0)">
        <rect x="0" y="0" width="140" height="140" style="fill:none;"/>
        <g transform="matrix(1.68926,0,0,1,0.68337,4.29367)">
            <path d="M64.851,3.638C65.942,4.018 66.929,5.169 67.157,6.331C67.604,8.568 65.464,10.805 63.323,10.338C61.713,9.991 60.466,8.275 60.622,6.657C60.736,5.517 61.557,4.344 62.596,3.812C63.23,3.497 64.206,3.421 64.851,3.638Z" style="fill:white;fill-rule:nonzero;"/>
            <path d="M41.395,3.638C42.486,4.018 43.474,5.169 43.702,6.331C44.149,8.568 42.009,10.805 39.868,10.338C38.258,9.991 37.011,8.275 37.166,6.657C37.281,5.517 38.102,4.344 39.141,3.812C39.775,3.497 40.751,3.421 41.395,3.638Z" style="fill:white;fill-rule:nonzero;"/>
            <path d="M17.94,3.638C19.031,4.018 20.018,5.169 20.247,6.331C20.694,8.568 18.553,10.805 16.413,10.338C14.802,9.991 13.555,8.275 13.711,6.657C13.826,5.517 14.646,4.344 15.685,3.812C16.319,3.497 17.296,3.421 17.94,3.638Z" style="fill:white;fill-rule:nonzero;"/>
            <path d="M64.85,26.303C65.942,26.683 66.929,27.834 67.157,28.996C67.604,31.233 65.463,33.47 63.323,33.003C61.713,32.655 60.466,30.94 60.621,29.322C60.736,28.181 61.557,27.008 62.596,26.476C63.23,26.161 64.206,26.085 64.85,26.303Z" style="fill:white;fill-rule:nonzero;"/>
            <path d="M41.395,26.303C42.486,26.683 43.473,27.834 43.702,28.996C44.149,31.233 42.008,33.47 39.868,33.003C38.257,32.655 37.011,30.94 37.166,29.322C37.281,28.181 38.102,27.008 39.141,26.476C39.774,26.161 40.751,26.085 41.395,26.303Z" style="fill:white;fill-rule:nonzero;"/>
            <path d="M17.94,26.303C19.031,26.683 20.018,27.834 20.247,28.996C20.694,31.233 18.553,33.47 16.413,33.003C14.802,32.655 13.555,30.94 13.711,29.322C13.826,28.181 14.646,27.008 15.685,26.476C16.319,26.161 17.296,26.085 17.94,26.303Z" style="fill:white;fill-rule:nonzero;"/>
            <path d="M64.861,48.948C65.952,49.328 66.939,50.479 67.168,51.641C67.615,53.878 65.474,56.115 63.334,55.648C61.723,55.3 60.476,53.585 60.632,51.967C60.746,50.826 61.567,49.654 62.606,49.121C63.24,48.807 64.217,48.731 64.861,48.948Z" style="fill:white;fill-rule:nonzero;"/>
            <path d="M41.406,48.948C42.497,49.328 43.484,50.479 43.713,51.641C44.159,53.878 42.019,56.115 39.879,55.648C38.268,55.3 37.021,53.585 37.177,51.967C37.291,50.826 38.112,49.654 39.151,49.121C39.785,48.807 40.762,48.731 41.406,48.948Z" style="fill:white;fill-rule:nonzero;"/>
            <path d="M17.951,48.948C19.042,49.328 20.029,50.479 20.257,51.641C20.704,53.878 18.564,56.115 16.423,55.648C14.813,55.3 13.566,53.585 13.722,51.967C13.836,50.826 14.657,49.654 15.696,49.121C16.33,48.807 17.307,48.731 17.951,48.948Z" style="fill:white;fill-rule:nonzero;"/>
            <path d="M64.861,71.587C65.952,71.967 66.939,73.118 67.168,74.28C67.615,76.517 65.474,78.754 63.334,78.287C61.723,77.94 60.476,76.224 60.632,74.606C60.746,73.466 61.567,72.293 62.606,71.761C63.24,71.446 64.217,71.37 64.861,71.587Z" style="fill:white;fill-rule:nonzero;"/>
            <path d="M41.406,71.587C42.497,71.967 43.484,73.118 43.713,74.28C44.159,76.517 42.019,78.754 39.879,78.287C38.268,77.94 37.021,76.224 37.177,74.606C37.291,73.466 38.112,72.293 39.151,71.761C39.785,71.446 40.762,71.37 41.406,71.587Z" style="fill:white;fill-rule:nonzero;"/>
            <path d="M17.951,71.587C19.042,71.967 20.029,73.118 20.257,74.28C20.704,76.517 18.564,78.754 16.423,78.287C14.813,77.94 13.566,76.224 13.722,74.606C13.836,73.466 14.657,72.293 15.696,71.761C16.33,71.446 17.307,71.37 17.951,71.587Z" style="fill:white;fill-rule:nonzero;"/>
            <path d="M64.861,94.227C65.952,94.607 66.939,95.758 67.168,96.92C67.615,99.157 65.474,101.394 63.334,100.927C61.723,100.579 60.476,98.864 60.632,97.246C60.746,96.105 61.567,94.933 62.606,94.4C63.24,94.086 64.217,94.009 64.861,94.227Z" style="fill:white;fill-rule:nonzero;"/>
            <path d="M41.406,94.227C42.497,94.607 43.484,95.758 43.713,96.92C44.159,99.157 42.019,101.394 39.879,100.927C38.268,100.579 37.021,98.864 37.177,97.246C37.291,96.105 38.112,94.933 39.151,94.4C39.785,94.086 40.762,94.009 41.406,94.227Z" style="fill:white;fill-rule:nonzero;"/>
            <path d="M17.951,94.227C19.042,94.607 20.029,95.758 20.257,96.92C20.704,99.157 18.564,101.394 16.423,100.927C14.813,100.579 13.566,98.864 13.722,97.246C13.836,96.105 14.657,94.933 15.696,94.4C16.33,94.086 17.307,94.009 17.951,94.227Z" style="fill:white;fill-rule:nonzero;"/>
            <path d="M64.861,116.866C65.952,117.246 66.939,118.397 67.168,119.559C67.615,121.796 65.474,124.033 63.334,123.566C61.723,123.219 60.476,121.503 60.632,119.885C60.746,118.745 61.567,117.572 62.606,117.04C63.24,116.725 64.217,116.649 64.861,116.866Z" style="fill:white;fill-rule:nonzero;"/>
            <path d="M41.406,116.866C42.497,117.246 43.484,118.397 43.713,119.559C44.159,121.796 42.019,124.033 39.879,123.566C38.268,123.219 37.021,121.503 37.177,119.885C37.291,118.745 38.112,117.572 39.151,117.04C39.785,116.725 40.762,116.649 41.406,116.866Z" style="fill:white;fill-rule:nonzero;"/>
            <path d="M17.951,116.866C19.042,117.246 20.029,118.397 20.257,119.559C20.704,121.796 18.564,124.033 16.423,123.566C14.813,123.219 13.566,121.503 13.722,119.885C13.836,118.745 14.657,117.572 15.696,117.04C16.33,116.725 17.307,116.649 17.951,116.866Z" style="fill:white;fill-rule:nonzero;"/>
        </g>
    </g>
</svg>
